<mxfile host="app.diagrams.net" modified="2024-02-06T22:31:04.770Z" agent="Mozilla/5.0 (Macintosh; Intel Mac OS X 10_15_7) AppleWebKit/537.36 (KHTML, like Gecko) Chrome/120.0.0.0 Safari/537.36" etag="fosDCjr6IgetjipFbAfj" version="22.1.21" type="github">
  <diagram name="Page-1" id="IIw_Rbb_Y-ITaWwgGVM4">
    <mxGraphModel dx="1720" dy="840" grid="1" gridSize="10" guides="1" tooltips="1" connect="1" arrows="1" fold="1" page="1" pageScale="1" pageWidth="827" pageHeight="1169" math="0" shadow="0">
      <root>
        <mxCell id="0" />
        <mxCell id="1" parent="0" />
        <mxCell id="PM1JlAuyLoNs7FXwCi-w-1" value="Data Flow Diagram of DIM_products dimension" style="text;html=1;strokeColor=none;fillColor=#808080;align=center;verticalAlign=middle;whiteSpace=wrap;overflow=hidden;dashed=1;fontSize=36;fontColor=#FFFFFF;fontFamily=Helvetica;fontStyle=1" vertex="1" parent="1">
          <mxGeometry x="30" y="240" width="1303.75" height="50" as="geometry" />
        </mxCell>
        <mxCell id="PM1JlAuyLoNs7FXwCi-w-55" style="edgeStyle=orthogonalEdgeStyle;rounded=0;orthogonalLoop=1;jettySize=auto;html=1;exitX=0.5;exitY=1;exitDx=0;exitDy=0;entryX=0;entryY=0.5;entryDx=0;entryDy=0;" edge="1" parent="1" source="PM1JlAuyLoNs7FXwCi-w-2" target="PM1JlAuyLoNs7FXwCi-w-54">
          <mxGeometry relative="1" as="geometry" />
        </mxCell>
        <mxCell id="PM1JlAuyLoNs7FXwCi-w-2" value="" style="rounded=1;whiteSpace=wrap;html=1;dashed=1;strokeColor=none;strokeWidth=2;fillColor=#FFFFFF;fontFamily=Helvetica;fontSize=14;fontColor=#FFB366;opacity=75;verticalAlign=top;fontStyle=1;shadow=1;" vertex="1" parent="1">
          <mxGeometry x="863.75" y="323.08" width="256.25" height="476.92" as="geometry" />
        </mxCell>
        <mxCell id="PM1JlAuyLoNs7FXwCi-w-3" style="edgeStyle=orthogonalEdgeStyle;rounded=0;orthogonalLoop=1;jettySize=auto;html=1;entryX=0;entryY=0.75;entryDx=0;entryDy=0;" edge="1" parent="1" source="PM1JlAuyLoNs7FXwCi-w-4" target="PM1JlAuyLoNs7FXwCi-w-19">
          <mxGeometry relative="1" as="geometry" />
        </mxCell>
        <mxCell id="PM1JlAuyLoNs7FXwCi-w-4" value="" style="rounded=1;whiteSpace=wrap;html=1;dashed=1;strokeColor=none;strokeWidth=2;fillColor=#FFFFFF;fontFamily=Helvetica;fontSize=14;fontColor=#FFB366;opacity=75;verticalAlign=top;fontStyle=1;shadow=1;" vertex="1" parent="1">
          <mxGeometry x="10" y="320" width="260" height="480" as="geometry" />
        </mxCell>
        <mxCell id="PM1JlAuyLoNs7FXwCi-w-5" style="edgeStyle=orthogonalEdgeStyle;rounded=0;orthogonalLoop=1;jettySize=auto;html=1;exitX=0.75;exitY=1;exitDx=0;exitDy=0;entryX=0;entryY=0.75;entryDx=0;entryDy=0;" edge="1" parent="1" source="PM1JlAuyLoNs7FXwCi-w-6" target="PM1JlAuyLoNs7FXwCi-w-14">
          <mxGeometry relative="1" as="geometry" />
        </mxCell>
        <mxCell id="PM1JlAuyLoNs7FXwCi-w-6" value="" style="rounded=1;whiteSpace=wrap;html=1;dashed=1;strokeColor=none;strokeWidth=2;fillColor=#FFFFFF;fontFamily=Helvetica;fontSize=14;fontColor=#FFB366;opacity=75;verticalAlign=top;fontStyle=1;shadow=1;" vertex="1" parent="1">
          <mxGeometry x="580" y="323.08" width="260" height="476.92" as="geometry" />
        </mxCell>
        <mxCell id="PM1JlAuyLoNs7FXwCi-w-7" value="&lt;font style=&quot;font-size: 24px;&quot;&gt;METADATA&lt;/font&gt;" style="rounded=1;whiteSpace=wrap;html=1;dashed=1;strokeColor=none;strokeWidth=2;fillColor=#7EA6E0;fontFamily=Helvetica;fontSize=14;fontColor=#FFB366;opacity=75;verticalAlign=top;fontStyle=1" vertex="1" parent="1">
          <mxGeometry x="21.880000000000003" y="1010" width="1320" height="50" as="geometry" />
        </mxCell>
        <mxCell id="PM1JlAuyLoNs7FXwCi-w-10" value="" style="rounded=1;whiteSpace=wrap;html=1;dashed=1;strokeColor=none;strokeWidth=2;fillColor=#FFFFFF;fontFamily=Helvetica;fontSize=14;fontColor=#FFB366;opacity=75;verticalAlign=top;fontStyle=1;shadow=1;" vertex="1" parent="1">
          <mxGeometry x="280" y="311.54" width="280" height="500" as="geometry" />
        </mxCell>
        <mxCell id="PM1JlAuyLoNs7FXwCi-w-11" value="&lt;span style=&quot;color: rgb(0, 76, 153); font-family: Helvetica; font-style: normal; font-variant-ligatures: normal; font-variant-caps: normal; letter-spacing: normal; orphans: 2; text-align: center; text-indent: 0px; text-transform: none; widows: 2; word-spacing: 0px; -webkit-text-stroke-width: 0px; background-color: rgb(251, 251, 251); text-decoration-thickness: initial; text-decoration-style: initial; text-decoration-color: initial; float: none; display: inline !important;&quot;&gt;&lt;font style=&quot;font-size: 18px;&quot;&gt;&lt;b&gt;Data Source&lt;/b&gt;&lt;/font&gt;&lt;/span&gt;" style="text;whiteSpace=wrap;html=1;" vertex="1" parent="1">
          <mxGeometry x="84.38" y="323.08" width="107.5" height="32" as="geometry" />
        </mxCell>
        <mxCell id="PM1JlAuyLoNs7FXwCi-w-13" value="&lt;font style=&quot;font-size: 14px;&quot;&gt;SA_online_pricelist&lt;/font&gt;" style="rounded=1;whiteSpace=wrap;html=1;strokeColor=#CCCCCC;shadow=1;fillColor=#E6E6E6;" vertex="1" parent="1">
          <mxGeometry x="322" y="390" width="196" height="50" as="geometry" />
        </mxCell>
        <mxCell id="PM1JlAuyLoNs7FXwCi-w-14" value="&lt;font style=&quot;font-size: 18px;&quot;&gt;Loading data to BL_3NF Layer, generation of surrogate keys&lt;/font&gt;" style="rounded=1;whiteSpace=wrap;html=1;strokeColor=#CCCCCC;" vertex="1" parent="1">
          <mxGeometry x="813.25" y="820" width="116.75" height="150" as="geometry" />
        </mxCell>
        <mxCell id="PM1JlAuyLoNs7FXwCi-w-15" value="" style="rounded=1;whiteSpace=wrap;html=1;dashed=1;strokeColor=none;strokeWidth=2;fillColor=#FFFFFF;fontFamily=Helvetica;fontSize=14;fontColor=#FFB366;opacity=75;verticalAlign=top;fontStyle=1;shadow=1;" vertex="1" parent="1">
          <mxGeometry x="1151" y="321.54" width="180" height="480" as="geometry" />
        </mxCell>
        <mxCell id="PM1JlAuyLoNs7FXwCi-w-16" value="" style="shape=image;verticalLabelPosition=bottom;labelBackgroundColor=#ffffff;verticalAlign=top;aspect=fixed;imageAspect=0;image=data:image/svg+xml,PHN2ZyB4bWxuczpjYz0iaHR0cDovL2NyZWF0aXZlY29tbW9ucy5vcmcvbnMjIiB4bWxuczpkYz0iaHR0cDovL3B1cmwub3JnL2RjL2VsZW1lbnRzLzEuMS8iIHhtbG5zOmlua3NjYXBlPSJodHRwOi8vd3d3Lmlua3NjYXBlLm9yZy9uYW1lc3BhY2VzL2lua3NjYXBlIiB4bWxuczpyZGY9Imh0dHA6Ly93d3cudzMub3JnLzE5OTkvMDIvMjItcmRmLXN5bnRheC1ucyMiIHhtbG5zOnNvZGlwb2RpPSJodHRwOi8vc29kaXBvZGkuc291cmNlZm9yZ2UubmV0L0RURC9zb2RpcG9kaS0wLmR0ZCIgeG1sbnM6c3ZnPSJodHRwOi8vd3d3LnczLm9yZy8yMDAwL3N2ZyIgeG1sbnM9Imh0dHA6Ly93d3cudzMub3JnLzIwMDAvc3ZnIiB4bWxuczp4bGluaz0iaHR0cDovL3d3dy53My5vcmcvMTk5OS94bGluayIgdmVyc2lvbj0iMS4xIiBpZD0ic3ZnOTkwNTgiIGlua3NjYXBlOnZlcnNpb249IjAuOTIuMyAoMjQwNTU0NiwgMjAxOC0wMy0xMSkiIHNvZGlwb2RpOmRvY25hbWU9ImRhdGFiYXNlcy5zdmciIHg9IjBweCIgeT0iMHB4IiB2aWV3Qm94PSIwIDAgNTIuODggNjUuODciIHN0eWxlPSJlbmFibGUtYmFja2dyb3VuZDpuZXcgMCAwIDUyLjg4IDY1Ljg3OyIgeG1sOnNwYWNlPSJwcmVzZXJ2ZSI+JiN4YTs8c29kaXBvZGk6bmFtZWR2aWV3IGJvcmRlcmNvbG9yPSIjNjY2NjY2IiBib3JkZXJvcGFjaXR5PSIxIiBmaXQtbWFyZ2luLWJvdHRvbT0iMCIgZml0LW1hcmdpbi1sZWZ0PSIwIiBmaXQtbWFyZ2luLXJpZ2h0PSIwIiBmaXQtbWFyZ2luLXRvcD0iMCIgZ3JpZHRvbGVyYW5jZT0iMTAiIGd1aWRldG9sZXJhbmNlPSIxMCIgaWQ9Im5hbWVkdmlldzk5MDYwIiBpbmtzY2FwZTpjdXJyZW50LWxheWVyPSJzdmc5OTA1OCIgaW5rc2NhcGU6Y3g9IjM1LjI1IiBpbmtzY2FwZTpjeT0iNDMuOTE1OCIgaW5rc2NhcGU6cGFnZW9wYWNpdHk9IjAiIGlua3NjYXBlOnBhZ2VzaGFkb3c9IjIiIGlua3NjYXBlOndpbmRvdy1oZWlnaHQ9IjEwMTciIGlua3NjYXBlOndpbmRvdy1tYXhpbWl6ZWQ9IjEiIGlua3NjYXBlOndpbmRvdy13aWR0aD0iMTkyMCIgaW5rc2NhcGU6d2luZG93LXg9Ii04IiBpbmtzY2FwZTp3aW5kb3cteT0iLTgiIGlua3NjYXBlOnpvb209IjkuODcyMjY4NSIgb2JqZWN0dG9sZXJhbmNlPSIxMCIgcGFnZWNvbG9yPSIjZmZmZmZmIiBzaG93Z3JpZD0iZmFsc2UiPiYjeGE7CTwvc29kaXBvZGk6bmFtZWR2aWV3PiYjeGE7PGcgaWQ9Imc5OTA1NiIgdHJhbnNmb3JtPSJ0cmFuc2xhdGUoMCwtMC4wMDMyKSI+JiN4YTsJPHRpdGxlIGlkPSJ0aXRsZTk5MDQxIj5QYWdlLTE8L3RpdGxlPiYjeGE7CTxnIGlkPSJncm91cDM1MTAtMSI+JiN4YTsJCTx0aXRsZSBpZD0idGl0bGU5OTA0MyI+RGF0YWJhc2VzPC90aXRsZT4mI3hhOwkJPGcgaWQ9InNoYXBlMzUxMS0yIiB0cmFuc2Zvcm09InRyYW5zbGF0ZSgxLjAyNDcxLC01Ni40NTY4KSI+JiN4YTsJCQk8dGl0bGUgaWQ9InRpdGxlOTkwNDUiPlNoZWV0LjM1MTE8L3RpdGxlPiYjeGE7CQkJPHBhdGggaWQ9InBhdGg5OTA0NyIgaW5rc2NhcGU6Y29ubmVjdG9yLWN1cnZhdHVyZT0iMCIgc3R5bGU9ImZpbGw6IzNGNTc2NTsiIGQ9Ik0wLDYxLjE2YzAtMi41OSwxMS40My00LjcsMjUuNTItNC43ICAgICBjMTQuMSwwLDI1LjUxLDIuMTEsMjUuNTEsNC43YzAsMi42MS0xMS40MSw0LjcxLTI1LjUxLDQuNzFDMTEuNDMsNjUuODcsMCw2My43NywwLDYxLjE2eiIvPiYjeGE7CQk8L2c+JiN4YTsJCTxnIGlkPSJzaGFwZTM1MTItNCI+JiN4YTsJCQk8dGl0bGUgaWQ9InRpdGxlOTkwNTAiPlNoZWV0LjM1MTI8L3RpdGxlPiYjeGE7CQkJPHBhdGggaWQ9InBhdGg5OTA1MiIgaW5rc2NhcGU6Y29ubmVjdG9yLWN1cnZhdHVyZT0iMCIgc3R5bGU9ImZpbGw6IzNGNTc2NTsiIGQ9Ik01Mi44OCwyMC42NWMwLTE0LjMxLDAtMTQuMzEsMC0xNC4zMSAgICAgYy0zLjUzLDMuMjktMTYuOTYsNC41Ny0yNi40NCw0LjU3Yy05LjQ3LDAtMjIuOS0xLjI4LTI2LjQ0LTQuNTdjMCwxNC4zMSwwLDE0LjMxLDAsMTQuMzFjMCwwLjY0LDAuNTUsMS4yNiwxLjY1LDEuOSAgICAgQzAuNTUsMjMuMDgsMCwyMy43MiwwLDI0LjM1YzAsMTYuMSwwLDE2LjEsMCwxNi4xYzAsMC43NCwwLjU1LDEuMzgsMS42NSwxLjkxQzAuNTUsNDIuOTksMCw0My41MiwwLDQ0LjI2ICAgICBjMCwxNi4xMSwwLDE2LjExLDAsMTYuMTFjMCwyLjk2LDExLjksNS41LDI2LjQ0LDUuNWMxNC42NSwwLDI2LjQ0LTIuNTQsMjYuNDQtNS41YzAtMTYuMTEsMC0xNi4xMSwwLTE2LjExICAgICBjMC0wLjc0LTAuNTYtMS4yNy0xLjU0LTEuOWMwLjk4LTAuNTMsMS41NC0xLjE3LDEuNTQtMS45MWMwLTE2LjEsMC0xNi4xLDAtMTYuMWMwLTAuNjMtMC41Ni0xLjI3LTEuNTQtMS44ICAgICBDNTIuMzIsMjEuOTEsNTIuODgsMjEuMjksNTIuODgsMjAuNjV6IE01MC40NSw0My42M2MwLDEuNjktMTAuNjgsMi45Ny0yNC4wMSwyLjk3Yy0xMy4yMiwwLTIzLjktMS4yOC0yMy45LTIuOTcgICAgIGMwLTIuMDIsMC0yLjAyLDAtMi4wMmMwLDEuNywxMC42OCwyLjk3LDIzLjksMi45N2MxMy4zMywwLDI0LjAxLTEuMjcsMjQuMDEtMi45N1Y0My42M3ogTTUwLjQ1LDIzLjkzICAgICBjMCwxLjY5LTEwLjY4LDMuMDctMjQuMDEsMy4wN2MtMTMuMjIsMC0yMy45LTEuMzgtMjMuOS0zLjA3YzAtMi4wMiwwLTIuMDIsMC0yLjAyYzAsMS43LDEwLjY4LDMuMDgsMjMuOSwzLjA4ICAgICBjMTMuMzMsMCwyNC4wMS0xLjM4LDI0LjAxLTMuMDhMNTAuNDUsMjMuOTN6Ii8+JiN4YTsJCTwvZz4mI3hhOwk8L2c+JiN4YTs8L2c+JiN4YTs8L3N2Zz4=;" vertex="1" parent="1">
          <mxGeometry x="111.63" y="355.08" width="53" height="66" as="geometry" />
        </mxCell>
        <mxCell id="PM1JlAuyLoNs7FXwCi-w-17" value="&lt;font style=&quot;&quot;&gt;&lt;font style=&quot;font-size: 18px;&quot;&gt;online_pricelist.csv&lt;br&gt;Info about products including prices for each date of the working period which are sold through online channel&lt;/font&gt;&lt;br&gt;&lt;/font&gt;" style="rounded=1;whiteSpace=wrap;html=1;strokeColor=#CCCCCC;" vertex="1" parent="1">
          <mxGeometry x="18.130000000000003" y="432.41999999999996" width="240" height="128.79" as="geometry" />
        </mxCell>
        <mxCell id="PM1JlAuyLoNs7FXwCi-w-18" style="edgeStyle=orthogonalEdgeStyle;rounded=0;orthogonalLoop=1;jettySize=auto;html=1;exitX=1;exitY=0.5;exitDx=0;exitDy=0;entryX=0.406;entryY=1.001;entryDx=0;entryDy=0;entryPerimeter=0;" edge="1" parent="1" source="PM1JlAuyLoNs7FXwCi-w-19" target="PM1JlAuyLoNs7FXwCi-w-10">
          <mxGeometry relative="1" as="geometry" />
        </mxCell>
        <mxCell id="PM1JlAuyLoNs7FXwCi-w-19" value="&lt;font style=&quot;&quot;&gt;&lt;font style=&quot;font-size: 18px;&quot;&gt;Loading data into staging area of DWH&lt;/font&gt;&lt;br&gt;&lt;/font&gt;" style="rounded=1;whiteSpace=wrap;html=1;strokeColor=#CCCCCC;" vertex="1" parent="1">
          <mxGeometry x="181.25" y="830" width="189.5" height="110.21" as="geometry" />
        </mxCell>
        <mxCell id="PM1JlAuyLoNs7FXwCi-w-20" value="&lt;span style=&quot;color: rgb(0, 76, 153); font-family: Helvetica; font-style: normal; font-variant-ligatures: normal; font-variant-caps: normal; letter-spacing: normal; orphans: 2; text-align: center; text-indent: 0px; text-transform: none; widows: 2; word-spacing: 0px; -webkit-text-stroke-width: 0px; background-color: rgb(251, 251, 251); text-decoration-thickness: initial; text-decoration-style: initial; text-decoration-color: initial; float: none; display: inline !important;&quot;&gt;&lt;font style=&quot;font-size: 18px;&quot;&gt;&lt;b&gt;Staging area&lt;/b&gt;&lt;/font&gt;&lt;/span&gt;" style="text;whiteSpace=wrap;html=1;shadow=1;" vertex="1" parent="1">
          <mxGeometry x="367.5" y="340" width="122.5" height="30" as="geometry" />
        </mxCell>
        <mxCell id="PM1JlAuyLoNs7FXwCi-w-22" value="&lt;font style=&quot;font-size: 14px;&quot;&gt;SA_online_pricelist.ext_online_pricelist&lt;/font&gt;" style="rounded=1;whiteSpace=wrap;html=1;strokeColor=#CCCCCC;shadow=1;" vertex="1" parent="1">
          <mxGeometry x="290" y="460" width="260" height="40" as="geometry" />
        </mxCell>
        <mxCell id="PM1JlAuyLoNs7FXwCi-w-24" value="&lt;span style=&quot;color: rgb(0, 76, 153); font-family: Helvetica; font-style: normal; font-variant-ligatures: normal; font-variant-caps: normal; letter-spacing: normal; orphans: 2; text-align: center; text-indent: 0px; text-transform: none; widows: 2; word-spacing: 0px; -webkit-text-stroke-width: 0px; background-color: rgb(251, 251, 251); text-decoration-thickness: initial; text-decoration-style: initial; text-decoration-color: initial; float: none; display: inline !important;&quot;&gt;&lt;font style=&quot;font-size: 18px;&quot;&gt;&lt;b&gt;3NF Layer&lt;/b&gt;&lt;/font&gt;&lt;/span&gt;" style="text;whiteSpace=wrap;html=1;shadow=1;" vertex="1" parent="1">
          <mxGeometry x="947.5" y="349.00000000000006" width="107.5" height="32" as="geometry" />
        </mxCell>
        <mxCell id="PM1JlAuyLoNs7FXwCi-w-25" value="&lt;font style=&quot;font-size: 18px;&quot;&gt;DIM_products&lt;/font&gt;" style="rounded=1;whiteSpace=wrap;html=1;strokeColor=#CCCCCC;shadow=1;" vertex="1" parent="1">
          <mxGeometry x="1166" y="530" width="150" height="39" as="geometry" />
        </mxCell>
        <mxCell id="PM1JlAuyLoNs7FXwCi-w-27" value="&lt;font style=&quot;font-size: 18px;&quot;&gt;ce_products&lt;/font&gt;" style="rounded=1;whiteSpace=wrap;html=1;strokeColor=#CCCCCC;shadow=1;" vertex="1" parent="1">
          <mxGeometry x="916.88" y="491" width="150" height="39" as="geometry" />
        </mxCell>
        <mxCell id="PM1JlAuyLoNs7FXwCi-w-28" value="&lt;span style=&quot;color: rgb(0, 76, 153); font-family: Helvetica; font-style: normal; font-variant-ligatures: normal; font-variant-caps: normal; letter-spacing: normal; orphans: 2; text-align: center; text-indent: 0px; text-transform: none; widows: 2; word-spacing: 0px; -webkit-text-stroke-width: 0px; background-color: rgb(251, 251, 251); text-decoration-thickness: initial; text-decoration-style: initial; text-decoration-color: initial; float: none; display: inline !important;&quot;&gt;&lt;font style=&quot;font-size: 18px;&quot;&gt;&lt;b&gt;Cleansing area&lt;/b&gt;&lt;/font&gt;&lt;/span&gt;" style="text;whiteSpace=wrap;html=1;shadow=1;" vertex="1" parent="1">
          <mxGeometry x="635.13" y="341" width="139.37" height="40" as="geometry" />
        </mxCell>
        <mxCell id="PM1JlAuyLoNs7FXwCi-w-29" value="&lt;font style=&quot;font-size: 18px;&quot;&gt;BL_CL&lt;/font&gt;" style="rounded=1;whiteSpace=wrap;html=1;strokeColor=#CCCCCC;shadow=1;fillColor=#E6E6E6;" vertex="1" parent="1">
          <mxGeometry x="640" y="401" width="134.5" height="50" as="geometry" />
        </mxCell>
        <mxCell id="PM1JlAuyLoNs7FXwCi-w-30" value="&lt;font style=&quot;font-size: 14px;&quot;&gt;lkp_products_sub_categories&lt;/font&gt;" style="rounded=1;whiteSpace=wrap;html=1;strokeColor=#CCCCCC;shadow=1;" vertex="1" parent="1">
          <mxGeometry x="617.75" y="500" width="192.25" height="40" as="geometry" />
        </mxCell>
        <mxCell id="PM1JlAuyLoNs7FXwCi-w-32" style="edgeStyle=orthogonalEdgeStyle;rounded=0;orthogonalLoop=1;jettySize=auto;html=1;exitX=1;exitY=0.5;exitDx=0;exitDy=0;entryX=0.5;entryY=1;entryDx=0;entryDy=0;" edge="1" parent="1" source="PM1JlAuyLoNs7FXwCi-w-33" target="PM1JlAuyLoNs7FXwCi-w-6">
          <mxGeometry relative="1" as="geometry" />
        </mxCell>
        <mxCell id="PM1JlAuyLoNs7FXwCi-w-33" value="&lt;font style=&quot;&quot;&gt;&lt;font style=&quot;font-size: 18px;&quot;&gt;Performing deduplication on products categories, subcategories and brands which can come from various sources&lt;/font&gt;&lt;br&gt;&lt;/font&gt;" style="rounded=1;whiteSpace=wrap;html=1;strokeColor=#CCCCCC;" vertex="1" parent="1">
          <mxGeometry x="479.25" y="830" width="210.75" height="140" as="geometry" />
        </mxCell>
        <mxCell id="PM1JlAuyLoNs7FXwCi-w-34" value="&lt;font style=&quot;font-size: 18px;&quot;&gt;ce_products_subcategories&lt;/font&gt;" style="rounded=1;whiteSpace=wrap;html=1;strokeColor=#CCCCCC;shadow=1;" vertex="1" parent="1">
          <mxGeometry x="880.16" y="620" width="229.84" height="40" as="geometry" />
        </mxCell>
        <mxCell id="PM1JlAuyLoNs7FXwCi-w-37" value="&lt;span style=&quot;color: rgb(0, 76, 153); font-family: Helvetica; font-style: normal; font-variant-ligatures: normal; font-variant-caps: normal; letter-spacing: normal; orphans: 2; text-indent: 0px; text-transform: none; widows: 2; word-spacing: 0px; -webkit-text-stroke-width: 0px; background-color: rgb(251, 251, 251); text-decoration-thickness: initial; text-decoration-style: initial; text-decoration-color: initial; float: none; display: inline !important;&quot;&gt;&lt;font style=&quot;font-size: 18px;&quot;&gt;&lt;b&gt;Dimensional Layer&lt;/b&gt;&lt;/font&gt;&lt;/span&gt;" style="text;whiteSpace=wrap;html=1;shadow=1;align=center;" vertex="1" parent="1">
          <mxGeometry x="1180" y="340" width="120" height="30" as="geometry" />
        </mxCell>
        <mxCell id="PM1JlAuyLoNs7FXwCi-w-39" value="&lt;font style=&quot;font-size: 18px;&quot;&gt;ce_products_categories&lt;/font&gt;" style="rounded=1;whiteSpace=wrap;html=1;strokeColor=#CCCCCC;shadow=1;" vertex="1" parent="1">
          <mxGeometry x="886.95" y="561.21" width="216.25" height="38.35" as="geometry" />
        </mxCell>
        <mxCell id="PM1JlAuyLoNs7FXwCi-w-40" value="&lt;font style=&quot;font-size: 18px;&quot;&gt;ce_brands&lt;/font&gt;" style="rounded=1;whiteSpace=wrap;html=1;strokeColor=#CCCCCC;shadow=1;" vertex="1" parent="1">
          <mxGeometry x="926.25" y="689.5399999999998" width="150" height="39" as="geometry" />
        </mxCell>
        <mxCell id="PM1JlAuyLoNs7FXwCi-w-41" value="&lt;font style=&quot;&quot;&gt;&lt;font style=&quot;font-size: 18px;&quot;&gt;offline_pricelist.csv&lt;br&gt;Info about products including prices for each date of the working period which are sold through offline channel&lt;/font&gt;&lt;br&gt;&lt;/font&gt;" style="rounded=1;whiteSpace=wrap;html=1;strokeColor=#CCCCCC;" vertex="1" parent="1">
          <mxGeometry x="20" y="570.9" width="240" height="119.1" as="geometry" />
        </mxCell>
        <mxCell id="PM1JlAuyLoNs7FXwCi-w-43" value="&lt;font style=&quot;font-size: 14px;&quot;&gt;SA_online_pricelist.src_online_pricelist&lt;/font&gt;" style="rounded=1;whiteSpace=wrap;html=1;strokeColor=#CCCCCC;shadow=1;" vertex="1" parent="1">
          <mxGeometry x="290" y="541.54" width="260" height="40" as="geometry" />
        </mxCell>
        <mxCell id="PM1JlAuyLoNs7FXwCi-w-45" value="&lt;font style=&quot;font-size: 14px;&quot;&gt;SA_offline_pricelist&lt;/font&gt;" style="rounded=1;whiteSpace=wrap;html=1;strokeColor=#CCCCCC;shadow=1;fillColor=#E6E6E6;" vertex="1" parent="1">
          <mxGeometry x="316" y="601.01" width="196" height="50" as="geometry" />
        </mxCell>
        <mxCell id="PM1JlAuyLoNs7FXwCi-w-47" value="&lt;font style=&quot;font-size: 14px;&quot;&gt;SA_offline_pricelist.ext_offline_pricelist&lt;/font&gt;" style="rounded=1;whiteSpace=wrap;html=1;strokeColor=#CCCCCC;shadow=1;" vertex="1" parent="1">
          <mxGeometry x="290" y="671" width="260" height="40" as="geometry" />
        </mxCell>
        <mxCell id="PM1JlAuyLoNs7FXwCi-w-48" value="&lt;font style=&quot;font-size: 14px;&quot;&gt;SA_offline_pricelist.src_offline_pricelist&lt;/font&gt;" style="rounded=1;whiteSpace=wrap;html=1;strokeColor=#CCCCCC;shadow=1;" vertex="1" parent="1">
          <mxGeometry x="290" y="752.54" width="260" height="40" as="geometry" />
        </mxCell>
        <mxCell id="PM1JlAuyLoNs7FXwCi-w-49" value="&lt;font style=&quot;font-size: 14px;&quot;&gt;lkp_products_categories&lt;/font&gt;" style="rounded=1;whiteSpace=wrap;html=1;strokeColor=#CCCCCC;shadow=1;" vertex="1" parent="1">
          <mxGeometry x="617.75" y="564.5" width="192.25" height="40" as="geometry" />
        </mxCell>
        <mxCell id="PM1JlAuyLoNs7FXwCi-w-50" value="&lt;font style=&quot;font-size: 14px;&quot;&gt;mapping_products_brands&lt;/font&gt;" style="rounded=1;whiteSpace=wrap;html=1;strokeColor=#CCCCCC;shadow=1;" vertex="1" parent="1">
          <mxGeometry x="621" y="690" width="192.25" height="40" as="geometry" />
        </mxCell>
        <mxCell id="PM1JlAuyLoNs7FXwCi-w-51" value="&lt;span style=&quot;color: rgb(0, 76, 153); font-family: Helvetica; font-style: normal; font-variant-ligatures: normal; font-variant-caps: normal; letter-spacing: normal; orphans: 2; text-align: center; text-indent: 0px; text-transform: none; widows: 2; word-spacing: 0px; -webkit-text-stroke-width: 0px; background-color: rgb(251, 251, 251); text-decoration-thickness: initial; text-decoration-style: initial; text-decoration-color: initial; float: none; display: inline !important;&quot;&gt;&lt;font style=&quot;font-size: 18px;&quot;&gt;&lt;b&gt;Data Source&lt;/b&gt;&lt;/font&gt;&lt;/span&gt;" style="text;whiteSpace=wrap;html=1;" vertex="1" parent="1">
          <mxGeometry x="84.38" y="693.04" width="107.5" height="32" as="geometry" />
        </mxCell>
        <mxCell id="PM1JlAuyLoNs7FXwCi-w-52" value="" style="shape=image;verticalLabelPosition=bottom;labelBackgroundColor=#ffffff;verticalAlign=top;aspect=fixed;imageAspect=0;image=data:image/svg+xml,PHN2ZyB4bWxuczpjYz0iaHR0cDovL2NyZWF0aXZlY29tbW9ucy5vcmcvbnMjIiB4bWxuczpkYz0iaHR0cDovL3B1cmwub3JnL2RjL2VsZW1lbnRzLzEuMS8iIHhtbG5zOmlua3NjYXBlPSJodHRwOi8vd3d3Lmlua3NjYXBlLm9yZy9uYW1lc3BhY2VzL2lua3NjYXBlIiB4bWxuczpyZGY9Imh0dHA6Ly93d3cudzMub3JnLzE5OTkvMDIvMjItcmRmLXN5bnRheC1ucyMiIHhtbG5zOnNvZGlwb2RpPSJodHRwOi8vc29kaXBvZGkuc291cmNlZm9yZ2UubmV0L0RURC9zb2RpcG9kaS0wLmR0ZCIgeG1sbnM6c3ZnPSJodHRwOi8vd3d3LnczLm9yZy8yMDAwL3N2ZyIgeG1sbnM9Imh0dHA6Ly93d3cudzMub3JnLzIwMDAvc3ZnIiB4bWxuczp4bGluaz0iaHR0cDovL3d3dy53My5vcmcvMTk5OS94bGluayIgdmVyc2lvbj0iMS4xIiBpZD0ic3ZnOTkwNTgiIGlua3NjYXBlOnZlcnNpb249IjAuOTIuMyAoMjQwNTU0NiwgMjAxOC0wMy0xMSkiIHNvZGlwb2RpOmRvY25hbWU9ImRhdGFiYXNlcy5zdmciIHg9IjBweCIgeT0iMHB4IiB2aWV3Qm94PSIwIDAgNTIuODggNjUuODciIHN0eWxlPSJlbmFibGUtYmFja2dyb3VuZDpuZXcgMCAwIDUyLjg4IDY1Ljg3OyIgeG1sOnNwYWNlPSJwcmVzZXJ2ZSI+JiN4YTs8c29kaXBvZGk6bmFtZWR2aWV3IGJvcmRlcmNvbG9yPSIjNjY2NjY2IiBib3JkZXJvcGFjaXR5PSIxIiBmaXQtbWFyZ2luLWJvdHRvbT0iMCIgZml0LW1hcmdpbi1sZWZ0PSIwIiBmaXQtbWFyZ2luLXJpZ2h0PSIwIiBmaXQtbWFyZ2luLXRvcD0iMCIgZ3JpZHRvbGVyYW5jZT0iMTAiIGd1aWRldG9sZXJhbmNlPSIxMCIgaWQ9Im5hbWVkdmlldzk5MDYwIiBpbmtzY2FwZTpjdXJyZW50LWxheWVyPSJzdmc5OTA1OCIgaW5rc2NhcGU6Y3g9IjM1LjI1IiBpbmtzY2FwZTpjeT0iNDMuOTE1OCIgaW5rc2NhcGU6cGFnZW9wYWNpdHk9IjAiIGlua3NjYXBlOnBhZ2VzaGFkb3c9IjIiIGlua3NjYXBlOndpbmRvdy1oZWlnaHQ9IjEwMTciIGlua3NjYXBlOndpbmRvdy1tYXhpbWl6ZWQ9IjEiIGlua3NjYXBlOndpbmRvdy13aWR0aD0iMTkyMCIgaW5rc2NhcGU6d2luZG93LXg9Ii04IiBpbmtzY2FwZTp3aW5kb3cteT0iLTgiIGlua3NjYXBlOnpvb209IjkuODcyMjY4NSIgb2JqZWN0dG9sZXJhbmNlPSIxMCIgcGFnZWNvbG9yPSIjZmZmZmZmIiBzaG93Z3JpZD0iZmFsc2UiPiYjeGE7CTwvc29kaXBvZGk6bmFtZWR2aWV3PiYjeGE7PGcgaWQ9Imc5OTA1NiIgdHJhbnNmb3JtPSJ0cmFuc2xhdGUoMCwtMC4wMDMyKSI+JiN4YTsJPHRpdGxlIGlkPSJ0aXRsZTk5MDQxIj5QYWdlLTE8L3RpdGxlPiYjeGE7CTxnIGlkPSJncm91cDM1MTAtMSI+JiN4YTsJCTx0aXRsZSBpZD0idGl0bGU5OTA0MyI+RGF0YWJhc2VzPC90aXRsZT4mI3hhOwkJPGcgaWQ9InNoYXBlMzUxMS0yIiB0cmFuc2Zvcm09InRyYW5zbGF0ZSgxLjAyNDcxLC01Ni40NTY4KSI+JiN4YTsJCQk8dGl0bGUgaWQ9InRpdGxlOTkwNDUiPlNoZWV0LjM1MTE8L3RpdGxlPiYjeGE7CQkJPHBhdGggaWQ9InBhdGg5OTA0NyIgaW5rc2NhcGU6Y29ubmVjdG9yLWN1cnZhdHVyZT0iMCIgc3R5bGU9ImZpbGw6IzNGNTc2NTsiIGQ9Ik0wLDYxLjE2YzAtMi41OSwxMS40My00LjcsMjUuNTItNC43ICAgICBjMTQuMSwwLDI1LjUxLDIuMTEsMjUuNTEsNC43YzAsMi42MS0xMS40MSw0LjcxLTI1LjUxLDQuNzFDMTEuNDMsNjUuODcsMCw2My43NywwLDYxLjE2eiIvPiYjeGE7CQk8L2c+JiN4YTsJCTxnIGlkPSJzaGFwZTM1MTItNCI+JiN4YTsJCQk8dGl0bGUgaWQ9InRpdGxlOTkwNTAiPlNoZWV0LjM1MTI8L3RpdGxlPiYjeGE7CQkJPHBhdGggaWQ9InBhdGg5OTA1MiIgaW5rc2NhcGU6Y29ubmVjdG9yLWN1cnZhdHVyZT0iMCIgc3R5bGU9ImZpbGw6IzNGNTc2NTsiIGQ9Ik01Mi44OCwyMC42NWMwLTE0LjMxLDAtMTQuMzEsMC0xNC4zMSAgICAgYy0zLjUzLDMuMjktMTYuOTYsNC41Ny0yNi40NCw0LjU3Yy05LjQ3LDAtMjIuOS0xLjI4LTI2LjQ0LTQuNTdjMCwxNC4zMSwwLDE0LjMxLDAsMTQuMzFjMCwwLjY0LDAuNTUsMS4yNiwxLjY1LDEuOSAgICAgQzAuNTUsMjMuMDgsMCwyMy43MiwwLDI0LjM1YzAsMTYuMSwwLDE2LjEsMCwxNi4xYzAsMC43NCwwLjU1LDEuMzgsMS42NSwxLjkxQzAuNTUsNDIuOTksMCw0My41MiwwLDQ0LjI2ICAgICBjMCwxNi4xMSwwLDE2LjExLDAsMTYuMTFjMCwyLjk2LDExLjksNS41LDI2LjQ0LDUuNWMxNC42NSwwLDI2LjQ0LTIuNTQsMjYuNDQtNS41YzAtMTYuMTEsMC0xNi4xMSwwLTE2LjExICAgICBjMC0wLjc0LTAuNTYtMS4yNy0xLjU0LTEuOWMwLjk4LTAuNTMsMS41NC0xLjE3LDEuNTQtMS45MWMwLTE2LjEsMC0xNi4xLDAtMTYuMWMwLTAuNjMtMC41Ni0xLjI3LTEuNTQtMS44ICAgICBDNTIuMzIsMjEuOTEsNTIuODgsMjEuMjksNTIuODgsMjAuNjV6IE01MC40NSw0My42M2MwLDEuNjktMTAuNjgsMi45Ny0yNC4wMSwyLjk3Yy0xMy4yMiwwLTIzLjktMS4yOC0yMy45LTIuOTcgICAgIGMwLTIuMDIsMC0yLjAyLDAtMi4wMmMwLDEuNywxMC42OCwyLjk3LDIzLjksMi45N2MxMy4zMywwLDI0LjAxLTEuMjcsMjQuMDEtMi45N1Y0My42M3ogTTUwLjQ1LDIzLjkzICAgICBjMCwxLjY5LTEwLjY4LDMuMDctMjQuMDEsMy4wN2MtMTMuMjIsMC0yMy45LTEuMzgtMjMuOS0zLjA3YzAtMi4wMiwwLTIuMDIsMC0yLjAyYzAsMS43LDEwLjY4LDMuMDgsMjMuOSwzLjA4ICAgICBjMTMuMzMsMCwyNC4wMS0xLjM4LDI0LjAxLTMuMDhMNTAuNDUsMjMuOTN6Ii8+JiN4YTsJCTwvZz4mI3hhOwk8L2c+JiN4YTs8L2c+JiN4YTs8L3N2Zz4=;" vertex="1" parent="1">
          <mxGeometry x="111.63" y="730" width="53" height="66" as="geometry" />
        </mxCell>
        <mxCell id="PM1JlAuyLoNs7FXwCi-w-53" style="edgeStyle=orthogonalEdgeStyle;rounded=0;orthogonalLoop=1;jettySize=auto;html=1;exitX=1;exitY=0.5;exitDx=0;exitDy=0;entryX=0.382;entryY=1;entryDx=0;entryDy=0;entryPerimeter=0;" edge="1" parent="1" source="PM1JlAuyLoNs7FXwCi-w-14" target="PM1JlAuyLoNs7FXwCi-w-2">
          <mxGeometry relative="1" as="geometry" />
        </mxCell>
        <mxCell id="PM1JlAuyLoNs7FXwCi-w-56" style="edgeStyle=orthogonalEdgeStyle;rounded=0;orthogonalLoop=1;jettySize=auto;html=1;exitX=1;exitY=0.5;exitDx=0;exitDy=0;entryX=0.5;entryY=1;entryDx=0;entryDy=0;" edge="1" parent="1" source="PM1JlAuyLoNs7FXwCi-w-54" target="PM1JlAuyLoNs7FXwCi-w-15">
          <mxGeometry relative="1" as="geometry" />
        </mxCell>
        <mxCell id="PM1JlAuyLoNs7FXwCi-w-54" value="&lt;font style=&quot;font-size: 18px;&quot;&gt;Loading data to BL_DM Layer, generation of surrogate keys&lt;/font&gt;" style="rounded=1;whiteSpace=wrap;html=1;strokeColor=#CCCCCC;" vertex="1" parent="1">
          <mxGeometry x="1053" y="820" width="127" height="110" as="geometry" />
        </mxCell>
        <mxCell id="PM1JlAuyLoNs7FXwCi-w-57" value="&lt;font style=&quot;font-size: 18px;&quot;&gt;BL_3NF&lt;/font&gt;" style="rounded=1;whiteSpace=wrap;html=1;strokeColor=#CCCCCC;shadow=1;fillColor=#E6E6E6;" vertex="1" parent="1">
          <mxGeometry x="924.63" y="401" width="134.5" height="50" as="geometry" />
        </mxCell>
        <mxCell id="PM1JlAuyLoNs7FXwCi-w-58" value="&lt;font style=&quot;font-size: 18px;&quot;&gt;BL_DM&lt;/font&gt;" style="rounded=1;whiteSpace=wrap;html=1;strokeColor=#CCCCCC;shadow=1;fillColor=#E6E6E6;" vertex="1" parent="1">
          <mxGeometry x="1181.5" y="420" width="134.5" height="50" as="geometry" />
        </mxCell>
        <mxCell id="PM1JlAuyLoNs7FXwCi-w-59" value="&lt;font style=&quot;font-size: 14px;&quot;&gt;lkp_products&lt;/font&gt;" style="rounded=1;whiteSpace=wrap;html=1;strokeColor=#CCCCCC;shadow=1;" vertex="1" parent="1">
          <mxGeometry x="617.75" y="631" width="192.25" height="40" as="geometry" />
        </mxCell>
        <mxCell id="PM1JlAuyLoNs7FXwCi-w-61" style="edgeStyle=orthogonalEdgeStyle;rounded=0;orthogonalLoop=1;jettySize=auto;html=1;exitX=0.5;exitY=1;exitDx=0;exitDy=0;entryX=-0.001;entryY=0.671;entryDx=0;entryDy=0;entryPerimeter=0;" edge="1" parent="1" source="PM1JlAuyLoNs7FXwCi-w-10" target="PM1JlAuyLoNs7FXwCi-w-33">
          <mxGeometry relative="1" as="geometry" />
        </mxCell>
      </root>
    </mxGraphModel>
  </diagram>
</mxfile>
